# xmcd
#
# Track frame offsets:
#	150
#	13473
#	25371
#	43569
#	55992
#	77715
#	94788
#	111486
#	127734
#	140082
#	159480
#	174078
#	190701
#
# Disc length: 2781 seconds
#
# Revision: 1
# Processed by: cddbd v1.5.2PL0 Copyright (c) Steve Scherf et al.
# Submitted via: audiograbber 1.83.01
#
DISCID=a90adb0d
DTITLE=Garth Brooks - Double Live - Disc 1
DYEAR=1900
DGENRE=
TTITLE0=Callin' Baton Rouge
TTITLE1=Two of a Kind, Workin' on a Full House
TTITLE2=Shameless
TTITLE3=Papa Loved Moma
TTITLE4=Thunder Rolls [The Long Version]
TTITLE5=We Shall Be Free
TTITLE6=Unanswered Prayers
TTITLE7=Standing Outside the Fire
TTITLE8=Longneck Bottle - Garth Brooks, Steve Wariner
TTITLE9=It's Your Song
TTITLE10=Much Too Young (To Feel This Damn Old)
TTITLE11=The River
TTITLE12=Tearin' It Up (And Burnin' It Down)
EXTD=
EXTT0=
EXTT1=
EXTT2=
EXTT3=
EXTT4=
EXTT5=
EXTT6=
EXTT7=
EXTT8=
EXTT9=
EXTT10=
EXTT11=
EXTT12=
PLAYORDER=
